<?xml version="1.0" encoding="UTF-8"?>
<svg xmlns="http://www.w3.org/2000/svg" xmlns:xlink="http://www.w3.org/1999/xlink" width="256px" height="256px" viewBox="0 0 256 256" version="1.1">
<g id="surface1">
<path style=" stroke:none;fill-rule:nonzero;fill:rgb(100%,100%,100%);fill-opacity:1;" d="M 12 0 L 244 0 C 250.628906 0 256 5.371094 256 12 L 256 244 C 256 250.628906 250.628906 256 244 256 L 12 256 C 5.371094 256 0 250.628906 0 244 L 0 12 C 0 5.371094 5.371094 0 12 0 Z M 12 0 "/>
<path style=" stroke:none;fill-rule:nonzero;fill:rgb(99.215686%,29.803922%,63.529412%);fill-opacity:1;" d="M 123.464844 53.390625 C 124.03125 50.308594 125.980469 48.609375 129.230469 47.925781 C 129.679688 47.925781 129.816406 47.863281 129.929688 47.753906 C 133.371094 47.539062 135.699219 49.203125 136.84375 52.289062 C 138.289062 56.175781 137.84375 59.800781 134.375 62.769531 C 137.183594 67.96875 138.945312 73.875 144.964844 77.09375 C 145.378906 77.34375 145.554688 77.394531 145.730469 77.445312 C 145.90625 77.445312 146.078125 77.445312 146.421875 77.566406 C 146.71875 77.664062 146.851562 77.636719 146.980469 77.605469 C 147.691406 77.59375 148.394531 77.578125 149.363281 77.660156 C 149.625 77.75 149.84375 77.753906 149.84375 77.753906 L 149.988281 77.566406 C 150.183594 77.515625 150.378906 77.476562 150.828125 77.441406 C 151.230469 77.410156 151.351562 77.339844 151.445312 77.226562 C 155.554688 75.898438 159.285156 73.601562 162.320312 70.53125 C 164.605469 68.269531 166.910156 66.03125 169.273438 63.539062 C 169.351562 63.175781 169.289062 63.078125 169.160156 63.023438 C 169.113281 62.148438 169.070312 61.273438 169.175781 60.085938 C 169.359375 59.585938 169.398438 59.40625 169.441406 59.226562 C 169.476562 58.746094 169.515625 58.265625 169.699219 57.546875 C 169.929688 57.179688 169.96875 57.046875 169.96875 56.894531 C 171.171875 53.804688 173.121094 52.253906 175.71875 52.300781 C 178.46875 52.351562 180.699219 54.121094 181.519531 57.21875 C 181.886719 58.625 181.789062 60.15625 181.769531 61.925781 C 181.558594 62.363281 181.535156 62.511719 181.550781 62.660156 C 180.496094 64.574219 179.441406 66.488281 178.140625 68.476562 C 177.84375 68.574219 177.753906 68.609375 177.753906 68.636719 C 177.753906 68.738281 177.785156 68.84375 177.804688 68.949219 C 177.84375 70.820312 177.886719 72.691406 177.828125 74.839844 C 177.671875 75.285156 177.71875 75.40625 177.894531 75.480469 C 177.96875 76.28125 178.050781 77.070312 178.078125 78.25 C 178.160156 79.085938 178.289062 79.53125 178.421875 79.976562 C 178.46875 80.324219 178.523438 80.675781 178.570312 81.300781 C 178.585938 81.730469 178.660156 81.851562 178.769531 81.945312 C 179.605469 83.773438 180.445312 85.605469 181.480469 87.636719 C 181.796875 87.925781 181.921875 87.96875 182.066406 87.984375 C 182.066406 87.984375 182.296875 87.96875 182.445312 88.085938 C 182.726562 88.160156 182.855469 88.121094 182.984375 88.085938 C 189.15625 86.800781 194.183594 83.230469 199.234375 79.789062 C 199.949219 79.308594 199.785156 77.539062 200.179688 76.089844 C 200.425781 75.679688 200.464844 75.539062 200.464844 75.378906 C 201.535156 72.261719 203.265625 69.710938 206.773438 68.445312 C 207.230469 68.398438 207.359375 68.316406 207.460938 68.183594 C 208.113281 68.121094 208.769531 68.128906 209.421875 68.199219 C 209.84375 68.429688 209.996094 68.464844 210.15625 68.449219 C 211.203125 69.496094 212.171875 70.621094 213.050781 71.816406 C 213.148438 72.421875 213.269531 72.695312 213.390625 72.96875 C 213.414062 73.519531 213.441406 74.070312 213.324219 74.925781 C 213.214844 75.207031 213.128906 75.5 213.070312 75.796875 C 212.824219 79.386719 210.648438 81.378906 207.199219 82.550781 C 206.78125 82.578125 206.660156 82.648438 206.566406 82.753906 C 205.414062 83.605469 204.015625 84.261719 203.15625 85.34375 C 196.136719 94.214844 191.425781 104.328125 187.523438 114.863281 C 187.179688 115.796875 186.859375 116.734375 186.359375 117.929688 C 186.230469 118.167969 186.125 118.417969 186.054688 118.679688 C 186.035156 118.871094 186.019531 119.066406 185.851562 119.480469 C 185.648438 119.863281 185.601562 120.03125 185.554688 120.195312 C 185.515625 120.546875 185.46875 120.894531 185.28125 121.476562 C 185.066406 121.824219 185.03125 121.949219 185.03125 122.089844 C 185.015625 122.394531 184.945312 122.691406 184.828125 122.96875 C 184.578125 123.335938 184.535156 123.488281 184.550781 123.660156 C 184.515625 124.011719 184.480469 124.359375 184.300781 124.960938 C 184.070312 125.34375 184.035156 125.488281 184.050781 125.648438 C 184.011719 126.003906 183.976562 126.359375 183.800781 126.960938 C 183.570312 127.34375 183.535156 127.496094 183.550781 127.648438 C 183.5 128.164062 183.453125 128.683594 183.269531 129.460938 C 183.058594 129.855469 183.03125 129.988281 183.046875 130.140625 C 183.003906 130.753906 182.910156 131.363281 182.769531 131.960938 C 182.558594 132.34375 182.53125 132.480469 182.539062 132.625 C 182.515625 132.980469 182.488281 133.339844 182.316406 133.953125 C 182.074219 134.355469 182.039062 134.515625 182.054688 134.683594 C 182.003906 135.035156 181.953125 135.394531 181.765625 135.984375 C 181.554688 136.324219 181.523438 136.449219 181.523438 136.578125 C 181.523438 136.578125 181.539062 136.796875 181.378906 136.839844 C 180.988281 136.761719 180.761719 136.628906 180.53125 136.503906 C 180.53125 134.804688 180.53125 133.113281 180.679688 131.09375 C 180.863281 130.59375 180.898438 130.414062 180.941406 130.238281 C 180.960938 129.765625 180.980469 129.289062 181.160156 128.539062 C 181.359375 127.964844 181.410156 127.664062 181.449219 127.371094 C 181.484375 127.011719 181.515625 126.648438 181.699219 126.039062 C 181.929688 125.65625 181.964844 125.503906 181.949219 125.34375 C 181.964844 125.144531 181.976562 124.945312 182.148438 124.519531 C 182.351562 124.105469 182.398438 123.925781 182.441406 123.75 C 182.460938 123.425781 182.480469 123.101562 182.65625 122.535156 C 182.855469 122.128906 182.898438 121.964844 182.941406 121.796875 C 182.949219 121.523438 183.015625 121.257812 183.128906 121.015625 C 183.34375 120.613281 183.390625 120.429688 183.441406 120.25 C 183.476562 119.921875 183.511719 119.589844 183.691406 119.03125 C 183.929688 118.675781 183.96875 118.53125 183.960938 118.378906 C 183.984375 118.164062 184.011719 117.949219 184.183594 117.519531 C 184.425781 117.183594 184.46875 117.046875 184.46875 116.894531 C 184.5 116.679688 184.523438 116.464844 184.699219 116.03125 C 184.929688 115.691406 184.96875 115.554688 184.976562 115.410156 C 188.808594 104.179688 194.285156 93.824219 201.644531 84.503906 C 202.945312 82.855469 203.59375 80.324219 206.738281 80.398438 C 207.203125 80.300781 207.339844 80.183594 207.480469 80.070312 C 208.628906 78.65625 209.773438 77.238281 211.058594 75.621094 C 211.324219 75.269531 211.300781 75.140625 211.128906 75.019531 C 210.984375 73.019531 211.308594 70.726562 208.109375 70.320312 C 207.695312 70.175781 207.578125 70.238281 207.511719 70.421875 L 202.449219 75.46875 C 202.171875 75.886719 202.113281 76.070312 202.058594 76.261719 C 202.035156 76.875 202.011719 77.488281 201.996094 78.480469 L 202.046875 79.609375 C 197.96875 86.691406 191.554688 90.261719 183.511719 91.710938 C 183.09375 91.550781 182.953125 91.535156 182.808594 91.558594 C 182.46875 91.539062 182.125 91.523438 181.550781 91.351562 C 181.183594 91.089844 181.03125 91.039062 180.859375 91.039062 C 178.03125 89.835938 176.980469 87.390625 176.410156 84.289062 C 176.378906 84.015625 176.28125 83.753906 176.125 83.523438 L 175.875 69.675781 C 175.675781 69.230469 175.484375 69.136719 175.300781 69.046875 C 175.300781 69.046875 175.144531 69.09375 175.066406 68.90625 C 174.980469 68.613281 174.976562 68.515625 174.964844 68.414062 C 176.476562 66.710938 177.988281 65 179.664062 63.046875 C 179.921875 62.660156 179.964844 62.503906 179.949219 62.335938 C 179.980469 61.835938 180.011719 61.335938 180.175781 60.574219 C 180.25 60.054688 180.195312 59.796875 180.140625 59.535156 C 179.449219 55.953125 178.421875 54.84375 175.105469 54.285156 C 174.675781 54.183594 174.566406 54.261719 174.503906 54.433594 C 172.351562 55.511719 171.441406 57.425781 170.886719 59.875 C 170.660156 60.238281 170.683594 60.363281 170.839844 60.46875 C 170.859375 61.019531 170.875 61.570312 170.804688 62.386719 C 170.671875 62.804688 170.730469 62.914062 170.898438 62.984375 C 170.949219 63.175781 171.003906 63.371094 171.039062 63.886719 L 171 64.929688 C 170.558594 65.378906 170.125 65.828125 169.46875 66.460938 C 169.179688 66.808594 169.109375 66.96875 169.039062 67.125 C 164.960938 72.839844 159.90625 77.316406 152.816406 79.605469 C 152.523438 79.644531 152.25 79.761719 152.015625 79.941406 C 145.75 81.53125 140.25 79.078125 136.515625 72.886719 C 135.625 71.414062 135.101562 69.726562 134.414062 67.808594 C 134.304688 67.328125 134.191406 67.175781 134.078125 67.019531 L 133.179688 63.191406 L 131.886719 62.75 C 133.113281 60.898438 134.300781 59.121094 135.613281 57.121094 C 135.839844 56.765625 135.816406 56.640625 135.664062 56.53125 C 135.648438 56.289062 135.628906 56.050781 135.726562 55.546875 C 135.75 55.195312 135.695312 54.84375 135.566406 54.515625 C 135.523438 54.324219 135.480469 54.128906 135.429688 53.671875 C 135.378906 53.238281 135.28125 53.121094 135.136719 53.03125 C 134.183594 52.03125 133.234375 51.019531 132.035156 49.84375 C 131.636719 49.636719 131.476562 49.59375 131.316406 49.554688 C 130.863281 49.570312 130.414062 49.585938 129.695312 49.578125 C 129.269531 49.585938 129.148438 49.660156 129.054688 49.78125 C 126.804688 50.671875 125.335938 52.210938 124.808594 54.953125 C 124.734375 55.644531 124.808594 56.054688 124.875 56.464844 C 125.410156 57.753906 125.179688 59.675781 127.476562 59.554688 C 127.613281 59.546875 127.804688 60.578125 127.824219 61.421875 C 127.710938 61.671875 127.621094 61.933594 127.558594 62.203125 C 127.390625 63.136719 127.164062 64.054688 126.878906 64.953125 C 126.734375 65.195312 126.628906 65.453125 126.558594 65.726562 C 124.460938 72.148438 120.910156 77.589844 115.335938 81.5 C 110.980469 84.550781 106.648438 84.335938 102.371094 81.179688 C 98.585938 78.390625 95.949219 74.699219 93.96875 70.179688 C 93.875 69.730469 93.78125 69.609375 93.636719 69.53125 C 93.234375 68.179688 92.835938 66.828125 92.449219 65.128906 C 92.40625 64.804688 92.292969 64.496094 92.113281 64.21875 L 91.503906 64.769531 C 91.191406 65.054688 90.789062 65.21875 90.363281 65.234375 C 90.125 65.089844 89.902344 64.925781 89.699219 64.734375 C 90.175781 63.660156 90.667969 62.59375 91.183594 61.539062 C 91.429688 61.191406 91.46875 61.054688 91.476562 60.910156 C 91.515625 60.230469 91.554688 59.550781 91.683594 58.621094 C 91.84375 58.21875 91.800781 58.105469 91.644531 58.023438 C 91.199219 56.074219 90.785156 53.925781 88.386719 53.660156 C 85.898438 53.390625 84.625 55.25 83.40625 57.46875 C 83.15625 57.90625 83.105469 58.09375 83.054688 58.285156 C 83.789062 60.171875 84.675781 62.015625 85.214844 63.949219 C 85.773438 65.960938 86.054688 68.050781 86.363281 70.113281 C 87.300781 76.25 86.566406 82.25 84.488281 88.050781 C 82.023438 94.921875 76.648438 96.601562 70.71875 92.339844 C 64.875 88.140625 59.625 83.296875 55.394531 76.980469 C 54.945312 75.738281 54.578125 74.828125 54.394531 73.878906 C 53.898438 71.441406 53.023438 69.25 50.753906 67.933594 C 48.703125 66.753906 46.949219 67.585938 46.503906 69.886719 C 45.871094 73.15625 48.339844 75.621094 51.808594 75.289062 C 52.488281 75.230469 53.210938 75.621094 53.910156 75.804688 L 52.535156 76.828125 C 65.515625 91.640625 71.113281 109.375 73.84375 128.269531 C 74.15625 130.40625 73.886719 132.621094 73.886719 134.800781 L 72.679688 135.015625 C 72.296875 134.046875 71.78125 133.101562 71.539062 132.09375 C 69.503906 123.78125 67.859375 115.351562 65.429688 107.15625 C 62.59375 97.554688 58.304688 88.445312 52.714844 80.144531 C 51.648438 78.566406 50.53125 77.289062 48.441406 76.675781 C 44.539062 75.535156 43.300781 70 46.023438 66.945312 C 47.648438 65.121094 49.585938 65.246094 51.425781 66.453125 C 54.234375 68.304688 55.789062 70.925781 55.804688 74.394531 C 55.804688 75.019531 56.09375 75.835938 56.539062 76.246094 C 60.839844 80.175781 65.195312 84.050781 69.550781 87.921875 C 70.246094 88.515625 70.980469 89.070312 71.746094 89.574219 C 77.085938 93.246094 80.585938 92.335938 82.039062 85.988281 C 83.476562 79.714844 83.789062 73.179688 84.5 66.75 C 84.570312 66.136719 84.140625 65.328125 83.703125 64.808594 C 82.140625 62.933594 81.234375 60.878906 81.675781 58.085938 C 81.859375 57.605469 81.898438 57.433594 81.941406 57.253906 C 82.464844 54.386719 84.261719 52.710938 87.269531 51.941406 C 87.691406 51.933594 87.816406 51.878906 87.921875 51.789062 C 90.886719 51.675781 92.195312 53.566406 93.046875 56.308594 C 93.089844 56.734375 93.164062 56.855469 93.28125 56.945312 C 93.355469 57.851562 93.734375 58.863281 93.460938 59.644531 C 92.300781 62.894531 93.894531 65.449219 95.351562 68.046875 C 98.230469 73.175781 101.425781 78.023438 107.386719 80.558594 C 107.585938 80.710938 107.796875 80.773438 107.796875 80.773438 L 107.976562 80.625 C 108.523438 80.613281 109.074219 80.601562 109.875 80.675781 C 110.304688 80.816406 110.425781 80.753906 110.488281 80.566406 C 114.589844 79.226562 117.488281 76.34375 119.675781 72.84375 C 121.738281 69.546875 123.390625 65.980469 125.113281 62.476562 C 125.351562 61.996094 125.054688 61.15625 124.816406 60.554688 C 124.453125 59.648438 123.929688 58.804688 123.464844 57.660156 C 123.425781 57.269531 123.363281 57.160156 123.273438 57.074219 C 123.214844 56.175781 123.15625 55.273438 123.230469 54.074219 C 123.441406 53.664062 123.46875 53.53125 123.464844 53.390625 Z M 123.464844 53.390625 "/>
<path style=" stroke:none;fill-rule:nonzero;fill:rgb(100%,29.411765%,63.529412%);fill-opacity:1;" d="M 128.996094 191.835938 C 129.78125 193.410156 130.324219 194.960938 131.308594 196.140625 C 133.410156 198.660156 136.796875 198.609375 138.960938 196.320312 C 139.996094 195.21875 140.171875 194.21875 139.585938 192.75 C 137.273438 186.914062 136.46875 180.875 137.523438 174.636719 C 138.109375 171.179688 139.566406 169.066406 141.550781 169 C 143.539062 168.933594 145.101562 170.859375 145.871094 174.390625 C 147.179688 180.378906 146.144531 186.15625 144.011719 191.761719 C 143.410156 193.324219 143.683594 194.363281 144.71875 195.554688 C 149.289062 200.785156 156.433594 200.078125 159.570312 193.875 C 165.179688 182.773438 162.519531 161.226562 146.21875 154.394531 C 145.859375 154.246094 145.53125 154.023438 145.183594 153.835938 L 145.496094 153.164062 C 147.253906 153.886719 149.128906 154.414062 150.765625 155.355469 C 157.125 159.03125 161.109375 164.683594 163.398438 171.515625 C 165.75 178.515625 166.5 185.660156 164.03125 192.824219 C 162.730469 196.613281 160.730469 199.894531 156.894531 201.714844 C 152.285156 203.914062 147.414062 203.140625 143.816406 199.519531 C 143.066406 198.765625 142.390625 197.921875 141.574219 197 C 140.976562 197.636719 140.425781 198.230469 139.859375 198.808594 C 135.535156 203.21875 129.695312 202.390625 126.820312 196.929688 C 123.980469 191.53125 123.886719 185.726562 124.601562 179.875 C 125.441406 172.804688 128.304688 166.128906 132.851562 160.644531 C 133.050781 160.40625 133.351562 160.25 133.898438 160.140625 C 127.714844 169.980469 126.484375 180.53125 128.996094 191.835938 M 142.273438 173.066406 C 140.664062 171.523438 139.996094 171.621094 139.539062 173.664062 C 138.25 179.464844 139.570312 184.933594 141.816406 190.941406 C 143.453125 184.710938 144.234375 179.121094 142.273438 173.066406 Z M 142.273438 173.066406 "/>
<path style=" stroke:none;fill-rule:nonzero;fill:rgb(100%,30.588235%,64.313725%);fill-opacity:1;" d="M 102.011719 197.996094 C 102.46875 198.109375 102.96875 198.144531 103.390625 198.351562 C 105.871094 199.539062 108.359375 200.550781 110.863281 198.503906 C 113.476562 196.371094 114 193.480469 113.445312 190.355469 C 112.769531 186.566406 110.460938 185.164062 106.796875 186.054688 C 104.945312 186.503906 103.058594 186.789062 100.910156 187.203125 C 100.910156 189.628906 100.863281 192.101562 100.921875 194.566406 C 100.980469 197.039062 101.136719 199.511719 101.246094 201.980469 L 100.449219 202.140625 C 99.824219 199.011719 99.171875 195.890625 98.578125 192.75 C 98.378906 191.691406 98.25 190.601562 98.238281 189.523438 C 98.226562 187.84375 97.945312 186.671875 96 185.976562 C 94.09375 185.300781 94.214844 183.445312 96.015625 182.398438 C 96.570312 182.074219 97.214844 181.898438 97.675781 181.71875 C 98.125 177.71875 98.390625 173.820312 99.074219 169.984375 C 99.375 168.261719 100.308594 166.535156 101.34375 165.085938 C 101.925781 164.273438 103.296875 164.035156 104.503906 163.449219 L 100.566406 181.121094 C 103.816406 181.96875 106.511719 182.734375 109.238281 183.335938 C 109.753906 183.445312 110.488281 182.988281 110.988281 182.621094 C 115.738281 179.09375 117.628906 174.328125 116.476562 168.585938 C 115.421875 163.335938 112.066406 160.148438 106.75 159.128906 C 106.351562 159.054688 105.960938 158.914062 105.570312 158.789062 C 105.5 158.765625 105.453125 158.675781 105.398438 158.621094 C 109.113281 156.855469 116.21875 159.910156 119.101562 164.519531 C 123.109375 170.910156 120.90625 177.109375 112.039062 184.40625 C 118.386719 190.609375 119.148438 195.429688 114.480469 199.789062 C 110.75 203.273438 105.851562 202.703125 102.019531 198.171875 C 102 198 102.011719 197.996094 102.011719 197.996094 M 102.648438 186.023438 L 107.886719 184.691406 L 107.804688 183.859375 L 100.679688 182.28125 C 101.449219 183.929688 99.636719 185.703125 102.648438 186.03125 Z M 102.648438 186.023438 "/>
<path style=" stroke:none;fill-rule:nonzero;fill:rgb(99.607843%,28.627451%,63.137255%);fill-opacity:1;" d="M 174.871094 137.085938 C 159.839844 129.640625 144.003906 127.289062 127.636719 128.074219 C 115.15625 128.671875 102.703125 129.765625 90.804688 133.980469 C 87.53125 135.140625 84.425781 136.78125 81.253906 138.230469 C 80.453125 138.59375 79.703125 139.058594 78.929688 139.476562 L 78.425781 138.914062 C 79.023438 138.304688 79.550781 137.589844 80.238281 137.105469 C 86.816406 132.453125 94.25 129.851562 102.050781 128.28125 C 117.128906 125.246094 132.324219 123.683594 147.699219 125.53125 C 157.171875 126.660156 166.320312 128.980469 174.816406 133.460938 C 175.765625 133.960938 176.699219 134.570312 177.476562 135.296875 C 177.941406 135.730469 178.089844 136.503906 178.386719 137.125 C 177.660156 137.273438 176.945312 137.5 176.21875 137.550781 C 175.839844 137.574219 175.441406 137.289062 174.871094 137.085938 Z M 174.871094 137.085938 "/>
<path style=" stroke:none;fill-rule:nonzero;fill:rgb(100%,29.803922%,63.921569%);fill-opacity:1;" d="M 171.550781 170.566406 C 172.085938 167.566406 172.363281 164.714844 173.214844 162.054688 C 174.050781 159.445312 176.09375 158.453125 178.328125 158.976562 C 177.46875 161.976562 176.324219 164.914062 175.800781 167.976562 C 174.238281 177.074219 174.683594 186.226562 175.726562 195.355469 C 175.796875 195.984375 176.308594 197.039062 176.71875 197.09375 C 180.46875 197.566406 184.265625 198.179688 188.019531 198.066406 C 189.78125 198.015625 191.488281 196.445312 193.328125 195.515625 C 192.835938 198.363281 190.988281 200.546875 188.246094 201.265625 C 185.621094 201.964844 182.71875 201.863281 179.960938 201.734375 C 178.085938 201.644531 176.253906 200.613281 174.378906 200.554688 C 172.660156 200.496094 170.910156 201.15625 169.230469 201.488281 C 169.25 198.90625 170.871094 197.425781 174.894531 196.820312 C 172.03125 188.371094 171.34375 179.640625 171.546875 170.570312 Z M 171.550781 170.566406 "/>
<path style=" stroke:none;fill-rule:nonzero;fill:rgb(99.607843%,29.411765%,63.529412%);fill-opacity:1;" d="M 138.230469 101.769531 C 139.003906 103.695312 138.449219 105.015625 137.175781 106.398438 C 134.726562 109.058594 132.496094 111.929688 130.398438 114.445312 C 128 111.613281 125.363281 108.746094 123.058594 105.628906 C 122.378906 104.714844 122.054688 102.714844 122.59375 101.855469 C 126.171875 96.144531 128.429688 89.964844 129.890625 83.441406 C 129.949219 83.160156 130.121094 82.90625 130.519531 82.015625 C 132.171875 89.320312 134.226562 95.851562 138.230469 101.765625 M 133.53125 97.695312 L 130.5 87.753906 C 128.878906 92.246094 127.160156 96.953125 125.511719 101.691406 C 125.304688 102.285156 125.21875 103.265625 125.558594 103.640625 C 127.101562 105.328125 128.808594 106.871094 130.574219 108.578125 C 131.15625 107.898438 131.621094 107.046875 132.335938 106.578125 C 135.960938 104.195312 135.828125 101.304688 133.535156 97.695312 Z M 133.53125 97.695312 "/>
<path style=" stroke:none;fill-rule:nonzero;fill:rgb(100%,29.803922%,63.921569%);fill-opacity:1;" d="M 76.953125 174.089844 L 75.769531 183.789062 L 87.621094 182.816406 L 87.804688 183.433594 L 75.789062 186.535156 L 76.710938 201.746094 L 76.261719 201.886719 C 75.683594 199.964844 74.976562 198.074219 74.578125 196.113281 C 74.089844 193.585938 73.71875 191.039062 73.46875 188.476562 C 73.304688 186.898438 72.816406 185.933594 71.023438 186.195312 C 70.703125 186.246094 70.285156 186.265625 70.046875 186.101562 C 69.234375 185.550781 68.480469 184.914062 67.699219 184.316406 C 68.601562 183.785156 69.449219 183.089844 70.425781 182.785156 C 71.054688 182.585938 71.871094 182.941406 73.015625 183.109375 C 73.015625 181.394531 72.878906 179.84375 73.046875 178.328125 C 73.378906 175.289062 73.695312 172.21875 74.378906 169.25 C 74.878906 167.109375 76.5 165.824219 79.28125 165.589844 C 78.453125 168.566406 77.71875 171.21875 76.953125 174.089844 Z M 76.953125 174.089844 "/>
<path style=" stroke:none;fill-rule:nonzero;fill:rgb(100%,29.411765%,63.529412%);fill-opacity:1;" d="M 93.460938 159.585938 C 94.851562 159.214844 96.039062 158.886719 97.226562 158.558594 L 97.476562 158.984375 C 96.433594 159.644531 95.464844 160.464844 94.34375 160.941406 C 86.480469 164.289062 78.34375 165.515625 69.964844 163.390625 C 68.140625 162.929688 66.480469 161.671875 64.875 160.578125 C 64.449219 160.289062 64.515625 159.269531 64.351562 158.585938 C 65.039062 158.550781 65.804688 158.300781 66.410156 158.511719 C 73.644531 161.050781 81.074219 161.289062 88.601562 160.476562 C 90.164062 160.304688 91.703125 159.921875 93.460938 159.585938 Z M 93.460938 159.585938 "/>
<path style=" stroke:none;fill-rule:nonzero;fill:rgb(100%,30.980392%,64.705882%);fill-opacity:1;" d="M 97.5 162 C 95.578125 164.339844 94.804688 166.808594 96.09375 169.808594 C 96.371094 170.460938 95.585938 171.558594 95.296875 172.449219 C 94.464844 171.871094 93.09375 171.425781 92.910156 170.679688 C 91.933594 166.824219 93.953125 164.039062 96.960938 161.625 C 97.359375 161.710938 97.449219 161.835938 97.5 162 Z M 97.5 162 "/>
<path style=" stroke:none;fill-rule:nonzero;fill:rgb(100%,42.352941%,70.588235%);fill-opacity:1;" d="M 97.65625 161.929688 C 97.449219 161.835938 97.355469 161.710938 97.109375 161.554688 C 98.644531 160.484375 100.265625 159.546875 101.960938 158.75 C 102.371094 158.949219 102.519531 159.050781 102.664062 159.148438 C 101.050781 160.050781 99.429688 160.953125 97.65625 161.929688 Z M 97.65625 161.929688 "/>
<path style=" stroke:none;fill-rule:nonzero;fill:rgb(98.823529%,30.196078%,63.529412%);fill-opacity:1;" d="M 180.511719 136.671875 C 180.761719 136.628906 180.988281 136.761719 181.339844 136.941406 C 181.25 137.246094 181.097656 137.53125 180.890625 137.773438 C 180.761719 137.464844 180.625 137.148438 180.511719 136.675781 Z M 180.511719 136.671875 "/>
<path style=" stroke:none;fill-rule:nonzero;fill:rgb(100%,30.588235%,64.313725%);fill-opacity:1;" d="M 102.859375 159.128906 C 102.585938 159.074219 102.335938 158.941406 102.140625 158.746094 C 102.816406 158.535156 103.570312 158.429688 104.324219 158.328125 L 104.398438 158.800781 C 103.949219 158.898438 103.5 159.003906 102.859375 159.128906 Z M 102.859375 159.128906 "/>
<path style=" stroke:none;fill-rule:nonzero;fill:rgb(99.215686%,29.803922%,63.529412%);fill-opacity:1;" d="M 90.183594 65.238281 C 90.035156 65.589844 89.746094 65.75 89.449219 65.910156 C 89.46875 65.585938 89.484375 65.261719 89.601562 64.835938 C 89.816406 64.839844 89.929688 64.949219 90.183594 65.238281 Z M 90.183594 65.238281 "/>
<path style=" stroke:none;fill-rule:nonzero;fill:rgb(98.823529%,30.196078%,63.529412%);fill-opacity:1;" d="M 91.675781 64.78125 C 91.710938 64.578125 91.910156 64.398438 92.113281 64.21875 C 92.230469 64.410156 92.351562 64.601562 92.464844 64.933594 C 92.265625 64.984375 92.054688 64.890625 91.675781 64.785156 Z M 124.910156 56.289062 C 124.777344 55.921875 124.726562 55.53125 124.761719 55.140625 C 124.886719 55.398438 124.910156 55.753906 124.910156 56.289062 Z M 178.441406 79.800781 C 178.242188 79.371094 178.109375 78.917969 178.046875 78.449219 C 178.195312 78.710938 178.324219 79.164062 178.441406 79.800781 Z M 180.105469 59.683594 C 180.195312 59.796875 180.253906 60.054688 180.21875 60.390625 C 180.113281 60.253906 180.09375 60.050781 180.105469 59.691406 Z M 171.136719 64.890625 C 171.003906 64.691406 171.015625 64.453125 171.035156 64.039062 C 171.125 64.191406 171.195312 64.519531 171.136719 64.890625 Z M 135.550781 54.675781 C 135.660156 54.773438 135.75 55.023438 135.753906 55.363281 C 135.628906 55.246094 135.578125 55.039062 135.554688 54.675781 Z M 213.410156 72.820312 C 213.269531 72.695312 213.148438 72.421875 213.046875 71.984375 C 213.183594 72.105469 213.308594 72.386719 213.410156 72.820312 Z M 181.351562 127.484375 C 181.410156 127.664062 181.363281 127.964844 181.210938 128.371094 C 181.148438 128.179688 181.199219 127.890625 181.351562 127.484375 Z M 202.15625 79.519531 C 202.03125 79.359375 202.019531 79.105469 202.003906 78.664062 C 202.136719 78.929688 202.191406 79.226562 202.15625 79.519531 Z M 186.148438 118.59375 C 186.101562 118.515625 186.148438 118.355469 186.289062 118.109375 C 186.339844 118.191406 186.289062 118.351562 186.148438 118.59375 Z M 182.84375 121.886719 C 182.894531 121.964844 182.855469 122.128906 182.714844 122.386719 C 182.664062 122.304688 182.699219 122.136719 182.84375 121.886719 Z M 185.105469 122.019531 C 185.023438 121.949219 185.066406 121.820312 185.203125 121.628906 C 185.320312 121.703125 185.289062 121.839844 185.105469 122.019531 Z M 183.328125 120.34375 C 183.390625 120.429688 183.34375 120.613281 183.183594 120.886719 C 183.125 120.800781 183.171875 120.613281 183.328125 120.34375 Z M 185.65625 120.109375 C 185.605469 120.03125 185.644531 119.863281 185.789062 119.609375 C 185.839844 119.695312 185.800781 119.859375 185.65625 120.109375 Z M 183.875 118.449219 C 183.96875 118.53125 183.925781 118.675781 183.765625 118.878906 C 183.644531 118.796875 183.679688 118.648438 183.875 118.453125 Z M 129.816406 47.730469 C 129.816406 47.863281 129.679688 47.929688 129.410156 47.941406 C 129.394531 47.804688 129.53125 47.726562 129.808594 47.730469 Z M 184.136719 125.570312 C 184.035156 125.488281 184.070312 125.34375 184.234375 125.125 C 184.363281 125.210938 184.335938 125.359375 184.136719 125.574219 Z M 184.386719 116.96875 C 184.46875 117.046875 184.425781 117.183594 184.261719 117.378906 C 184.160156 117.300781 184.199219 117.160156 184.386719 116.96875 Z M 184.890625 115.480469 C 184.96875 115.554688 184.929688 115.691406 184.769531 115.878906 C 184.660156 115.800781 184.695312 115.664062 184.890625 115.480469 Z M 182.894531 91.636719 C 182.953125 91.535156 183.09375 91.550781 183.320312 91.660156 C 183.410156 91.710938 183.195312 91.785156 183.195312 91.785156 C 183.195312 91.785156 182.980469 91.714844 182.894531 91.636719 Z M 180.941406 91.136719 C 181.03125 91.035156 181.183594 91.085938 181.390625 91.285156 C 181.296875 91.398438 181.144531 91.355469 180.941406 91.136719 Z M 182.871094 88.050781 C 182.855469 88.121094 182.71875 88.160156 182.550781 88.125 C 182.511719 88.050781 182.75 88.023438 182.871094 88.050781 Z M 182 87.898438 C 181.921875 87.96875 181.796875 87.925781 181.613281 87.761719 C 181.695312 87.671875 181.824219 87.714844 181.996094 87.898438 Z M 110.371094 80.550781 C 110.421875 80.75 110.304688 80.816406 110.078125 80.695312 C 110.03125 80.628906 110.25 80.546875 110.371094 80.554688 Z M 184.640625 123.574219 C 184.539062 123.488281 184.578125 123.335938 184.765625 123.113281 C 184.886719 123.210938 184.84375 123.363281 184.640625 123.574219 Z M 182.335938 123.839844 C 182.394531 123.925781 182.351562 124.105469 182.203125 124.378906 C 182.144531 124.296875 182.183594 124.113281 182.335938 123.839844 Z M 87.816406 51.75 C 87.816406 51.878906 87.691406 51.933594 87.449219 51.949219 C 87.433594 51.824219 87.558594 51.75 87.816406 51.75 Z M 181.871094 125.425781 C 181.96875 125.503906 181.929688 125.65625 181.765625 125.875 C 181.644531 125.789062 181.679688 125.640625 181.863281 125.425781 Z M 183.636719 127.570312 C 183.535156 127.496094 183.570312 127.34375 183.734375 127.128906 C 183.863281 127.210938 183.835938 127.359375 183.636719 127.570312 Z M 183.125 130.058594 C 183.03125 129.988281 183.058594 129.855469 183.199219 129.644531 C 183.328125 129.714844 183.308594 129.855469 183.125 130.058594 Z M 180.828125 130.328125 C 180.898438 130.414062 180.863281 130.59375 180.730469 130.871094 C 180.664062 130.785156 180.695312 130.605469 180.828125 130.328125 Z M 182.621094 132.550781 C 182.53125 132.480469 182.558594 132.351562 182.695312 132.144531 C 182.820312 132.214844 182.800781 132.351562 182.621094 132.546875 Z M 182.148438 134.601562 C 182.039062 134.515625 182.074219 134.351562 182.253906 134.125 C 182.308594 134.195312 182.273438 134.355469 182.148438 134.601562 Z M 181.601562 136.515625 C 181.523438 136.449219 181.554688 136.324219 181.683594 136.140625 C 181.800781 136.210938 181.773438 136.335938 181.601562 136.515625 Z M 129.164062 49.785156 C 129.148438 49.660156 129.269531 49.585938 129.523438 49.550781 C 129.546875 49.671875 129.425781 49.75 129.164062 49.785156 Z M 129.164062 49.785156 "/>
<path style=" stroke:none;fill-rule:nonzero;fill:rgb(100%,30.588235%,64.313725%);fill-opacity:1;" d="M 102 198 L 101.695312 197.746094 C 101.820312 197.753906 101.945312 197.769531 102.039062 197.886719 C 102.011719 197.996094 102 198 102 198 Z M 102 198 "/>
<path style=" stroke:none;fill-rule:nonzero;fill:rgb(98.823529%,30.196078%,63.529412%);fill-opacity:1;" d="M 174.628906 54.441406 C 174.566406 54.261719 174.675781 54.183594 174.898438 54.269531 C 174.960938 54.320312 174.75 54.433594 174.628906 54.441406 Z M 123.386719 53.464844 C 123.46875 53.53125 123.433594 53.664062 123.300781 53.863281 C 123.171875 53.789062 123.195312 53.65625 123.386719 53.464844 Z M 131.398438 49.648438 C 131.476562 49.59375 131.636719 49.636719 131.878906 49.765625 C 131.804688 49.816406 131.644531 49.773438 131.398438 49.644531 Z M 135.148438 53.148438 C 135.28125 53.113281 135.378906 53.238281 135.445312 53.523438 C 135.316406 53.554688 135.214844 53.429688 135.144531 53.148438 Z M 170.90625 62.871094 C 170.730469 62.921875 170.671875 62.804688 170.769531 62.589844 C 170.820312 62.539062 170.914062 62.75 170.90625 62.871094 Z M 174.839844 68.464844 C 174.976562 68.515625 174.980469 68.613281 174.996094 68.863281 C 174.90625 68.851562 174.808594 68.683594 174.84375 68.464844 Z M 210.074219 68.359375 C 209.996094 68.460938 209.84375 68.429688 209.625 68.261719 C 209.710938 68.125 209.863281 68.160156 210.074219 68.359375 Z M 135.625 56.640625 C 135.820312 56.640625 135.839844 56.765625 135.675781 56.941406 C 135.605469 56.980469 135.578125 56.75 135.625 56.640625 Z M 207.335938 68.175781 C 207.359375 68.316406 207.230469 68.398438 206.949219 68.441406 C 206.925781 68.304688 207.050781 68.210938 207.335938 68.175781 Z M 134.085938 67.164062 C 134.191406 67.175781 134.304688 67.328125 134.429688 67.628906 C 134.324219 67.625 134.203125 67.46875 134.078125 67.164062 Z M 169.148438 67.050781 C 169.109375 66.96875 169.179688 66.808594 169.359375 66.578125 C 169.398438 66.664062 169.328125 66.824219 169.148438 67.054688 Z M 126.664062 65.636719 C 126.605469 65.550781 126.648438 65.375 126.800781 65.113281 C 126.855469 65.199219 126.808594 65.371094 126.664062 65.636719 Z M 169.15625 63.136719 C 169.289062 63.078125 169.355469 63.175781 169.320312 63.359375 C 169.296875 63.410156 169.15625 63.246094 169.15625 63.136719 Z M 179.859375 62.421875 C 179.960938 62.503906 179.921875 62.660156 179.738281 62.878906 C 179.613281 62.789062 179.65625 62.636719 179.859375 62.421875 Z M 177.886719 68.851562 C 177.785156 68.84375 177.753906 68.738281 177.753906 68.636719 C 177.753906 68.609375 177.84375 68.578125 177.984375 68.535156 C 178.035156 68.601562 178 68.675781 177.886719 68.851562 Z M 181.636719 62.578125 C 181.535156 62.511719 181.558594 62.363281 181.703125 62.144531 C 181.839844 62.214844 181.820312 62.363281 181.636719 62.578125 Z M 127.648438 62.113281 C 127.601562 62.039062 127.636719 61.875 127.765625 61.625 C 127.820312 61.699219 127.785156 61.859375 127.65625 62.113281 Z M 91.394531 60.984375 C 91.46875 61.054688 91.429688 61.183594 91.269531 61.378906 C 91.175781 61.300781 91.214844 61.171875 91.394531 60.980469 Z M 170.878906 60.359375 C 170.683594 60.359375 170.660156 60.238281 170.828125 60.058594 C 170.894531 60.019531 170.921875 60.25 170.878906 60.359375 Z M 169.328125 59.320312 C 169.398438 59.40625 169.359375 59.589844 169.230469 59.871094 C 169.160156 59.785156 169.191406 59.601562 169.328125 59.320312 Z M 91.621094 58.136719 C 91.800781 58.105469 91.84375 58.21875 91.726562 58.421875 C 91.675781 58.464844 91.601562 58.25 91.625 58.136719 Z M 83.179688 58.195312 C 83.109375 58.09375 83.160156 57.90625 83.316406 57.621094 C 83.386719 57.714844 83.339844 57.90625 83.179688 58.195312 Z M 81.835938 57.351562 C 81.898438 57.429688 81.859375 57.605469 81.726562 57.875 C 81.664062 57.796875 81.699219 57.621094 81.835938 57.351562 Z M 169.886719 56.96875 C 169.96875 57.046875 169.929688 57.179688 169.769531 57.375 C 169.660156 57.296875 169.695312 57.160156 169.886719 56.96875 Z M 151.335938 77.214844 C 151.351562 77.339844 151.234375 77.414062 150.984375 77.453125 C 150.960938 77.335938 151.078125 77.25 151.335938 77.214844 Z M 206.671875 82.773438 C 206.660156 82.648438 206.78125 82.578125 207.019531 82.546875 C 207.046875 82.671875 206.925781 82.753906 206.671875 82.773438 Z M 93.289062 56.835938 C 93.164062 56.855469 93.089844 56.734375 93.046875 56.484375 C 93.164062 56.464844 93.25 56.585938 93.289062 56.835938 Z M 178.785156 81.835938 C 178.660156 81.851562 178.585938 81.730469 178.550781 81.480469 C 178.671875 81.460938 178.75 81.578125 178.785156 81.828125 Z M 123.261719 57.171875 C 123.363281 57.164062 123.425781 57.269531 123.464844 57.480469 C 123.363281 57.5 123.28125 57.398438 123.261719 57.171875 Z M 107.863281 80.585938 C 107.976562 80.628906 107.796875 80.773438 107.796875 80.773438 C 107.796875 80.773438 107.585938 80.703125 107.546875 80.636719 C 107.511719 80.558594 107.75 80.546875 107.863281 80.585938 Z M 207.351562 80.089844 C 207.34375 80.191406 207.199219 80.300781 206.925781 80.429688 C 206.925781 80.328125 207.070312 80.21875 207.34375 80.089844 Z M 152.164062 79.933594 C 152.171875 79.820312 152.328125 79.703125 152.636719 79.574219 C 152.636719 79.679688 152.476562 79.804688 152.164062 79.933594 Z M 149.871094 77.550781 C 149.988281 77.566406 149.84375 77.75 149.84375 77.75 C 149.84375 77.75 149.625 77.75 149.574219 77.683594 C 149.523438 77.625 149.75 77.535156 149.871094 77.550781 Z M 146.863281 77.558594 C 146.851562 77.636719 146.714844 77.660156 146.546875 77.609375 C 146.503906 77.539062 146.75 77.515625 146.863281 77.558594 Z M 176.125 83.664062 C 176.226562 83.675781 176.324219 83.820312 176.429688 84.105469 C 176.328125 84.101562 176.230469 83.953125 176.125 83.664062 Z M 145.640625 77.339844 C 145.554688 77.390625 145.378906 77.34375 145.109375 77.191406 C 145.195312 77.136719 145.371094 77.183594 145.640625 77.339844 Z M 202.175781 76.164062 C 202.113281 76.070312 202.175781 75.886719 202.34375 75.605469 C 202.40625 75.699219 202.34375 75.886719 202.175781 76.164062 Z M 200.375 75.453125 C 200.464844 75.535156 200.425781 75.679688 200.25 75.886719 C 200.125 75.796875 200.164062 75.648438 200.375 75.453125 Z M 213.191406 75.699219 C 213.109375 75.605469 213.144531 75.421875 213.289062 75.128906 C 213.363281 75.226562 213.339844 75.421875 213.191406 75.703125 Z M 211.078125 75.136719 C 211.300781 75.136719 211.324219 75.269531 211.125 75.453125 C 211.050781 75.488281 211.035156 75.25 211.078125 75.136719 Z M 177.921875 75.363281 C 177.71875 75.40625 177.671875 75.285156 177.804688 75.074219 C 177.863281 75.023438 177.941406 75.25 177.921875 75.363281 Z M 207.628906 70.421875 C 207.578125 70.238281 207.695312 70.175781 207.914062 70.285156 C 207.964844 70.335938 207.75 70.425781 207.628906 70.421875 Z M 93.644531 69.648438 C 93.78125 69.609375 93.875 69.730469 93.945312 70.003906 C 93.820312 70.039062 93.714844 69.921875 93.644531 69.648438 Z M 175.40625 69.148438 C 175.484375 69.136719 175.671875 69.230469 175.914062 69.476562 C 175.816406 69.5 175.664062 69.375 175.40625 69.144531 Z M 175.40625 69.148438 "/>
</g>
</svg>
